<mxfile host="65bd71144e">
    <diagram id="_SOL_3maZt-HUhPQAWNA" name="Page-1">
        <mxGraphModel dx="883" dy="741" grid="1" gridSize="10" guides="1" tooltips="1" connect="1" arrows="1" fold="1" page="0" pageScale="1" pageWidth="850" pageHeight="1100" math="0" shadow="0">
            <root>
                <mxCell id="0"/>
                <mxCell id="1" parent="0"/>
                <mxCell id="2" value="" style="shape=image;verticalLabelPosition=bottom;labelBackgroundColor=default;verticalAlign=top;aspect=fixed;imageAspect=0;image=https://cn.vuejs.org/assets/lifecycle_zh-CN.W0MNXI0C.png;" vertex="1" parent="1">
                    <mxGeometry x="90" y="50" width="533.73" height="775.25" as="geometry"/>
                </mxCell>
            </root>
        </mxGraphModel>
    </diagram>
</mxfile>